# xmcd
#
# Track frame offsets:
#	150
#	10706
#	22965
#	33185
#	40057
#	45891
#	54463
#	64303
#	70255
#	80981
#	91815
#
# Disc length: 1353 seconds
#
# Revision: 0
# Processed by: cddbd v1.5.2PL0 Copyright (c) Steve Scherf et al.
# Submitted via: audiograbber 1.83.01
#
DISCID=7f05470b
DTITLE=Johnny Cash - The Rough Cut King Of Country Music
DYEAR=1970
DGENRE=Country
TTITLE0=Cold, Cold Heart
TTITLE1=Goodnight Irene
TTITLE2=Straight A's In Love
TTITLE3=You're My Baby
TTITLE4=My Treasure
TTITLE5=I Forgot To Remember To Forget
TTITLE6=Born To Lose
TTITLE7=You Tell Me
TTITLE8=Fools Hall Of Fame
TTITLE9=I Just Thought You'd Like To Know
TTITLE10=Story Of A Broken Heart
EXTD=
EXTT0=
EXTT1=
EXTT2=
EXTT3=
EXTT4=
EXTT5=
EXTT6=
EXTT7=
EXTT8=
EXTT9=
EXTT10=
PLAYORDER=
